<?xml version="1.0" encoding="iso-8859-1"?>
<!-- Generator: Adobe Illustrator 21.1.0, SVG Export Plug-In . SVG Version: 6.00 Build 0)  -->
<svg xmlns="http://www.w3.org/2000/svg" xmlns:xlink="http://www.w3.org/1999/xlink" version="1.1" id="Layer_1" x="0px" y="0px" viewBox="0 0 64 64" style="enable-background:new 0 0 64 64;" xml:space="preserve" width="64px" height="64px">
<linearGradient id="SVGID_1__56545" gradientUnits="userSpaceOnUse" x1="-22.9981" y1="6.0049" x2="-22.9981" y2="58.0049" gradientTransform="matrix(1 0 0 1 54.9988 0)" spreadMethod="reflect">
	<stop offset="0" style="stop-color:#080702 "/>
	<stop offset="1" style="stop-color:#a98d27"/>
</linearGradient>
<path style="fill:url(#SVGID_1__56545);" d="M32.002,58.005h-0.001c-3.387,0-5.919-1.44-8.152-2.996c-0.452-0.315-0.897-0.721-1.369-1.151  C21.525,52.987,20.443,52,19.462,52c-0.832,0-2.379,0.38-3.304,0.607c-0.388,0.095-0.709,0.173-0.913,0.213  C14.739,52.917,14.309,53,13.919,53c-1.194,0-1.608-0.798-1.748-1.274c-0.133-0.447-0.231-0.882-0.323-1.303  c-0.061-0.272-0.164-0.737-0.253-0.986c-5.628-0.875-6.962-1.638-7.433-2.73c-0.094-0.22-0.147-0.441-0.159-0.662  c-0.045-0.802,0.522-1.503,1.318-1.63c7.407-1.205,11.268-8.738,11.303-8.813c0.263-0.53,0.496-1.189,0.284-1.683  c-0.33-0.769-1.827-1.683-3.019-2.055c-0.343-0.108-0.612-0.194-0.826-0.277c-2.833-1.105-3.209-2.467-3.026-3.415  c0.337-1.742,2.798-2.582,4.15-1.955l0.4,0.187C15.321,26.75,15.852,27,16.329,27c0.308,0,0.539-0.183,0.673-0.327l-0.006-2.509  c-0.021-3.496-0.042-7.111,1.072-9.576c2.502-5.535,7.449-8.583,13.931-8.583c6.485,0,11.432,3.048,13.934,8.583  c1.115,2.464,1.093,6.08,1.073,9.576L47,26.674C47.132,26.816,47.363,27,47.672,27c0.477,0,1.007-0.25,1.741-0.596l0.4-0.188  c1.367-0.626,3.816,0.214,4.151,1.956c0.183,0.947-0.193,2.309-3.025,3.414c-0.218,0.085-0.492,0.172-0.781,0.263  c-1.237,0.387-2.734,1.301-3.063,2.069c-0.213,0.494,0.021,1.153,0.254,1.62c0.019,0.038,0.047,0.105,0.062,0.145l0,0  c0.006,0,3.871,7.529,11.274,8.733c0.792,0.126,1.359,0.827,1.315,1.628c-0.014,0.226-0.066,0.445-0.157,0.659  c-0.473,1.096-1.807,1.859-7.435,2.733c-0.091,0.254-0.198,0.733-0.254,0.988c-0.091,0.418-0.19,0.854-0.323,1.303  C51.69,52.202,51.276,53,50.082,53c-0.389,0-0.819-0.083-1.318-0.179c-0.212-0.041-0.534-0.119-0.922-0.214  C46.917,52.38,45.371,52,44.539,52c-0.981,0-2.063,0.987-3.017,1.857c-0.472,0.43-0.917,0.837-1.37,1.152  C37.919,56.565,35.386,58.005,32.002,58.005z M19.462,50c1.756,0,3.203,1.319,4.365,2.379c0.422,0.385,0.82,0.749,1.165,0.989  c1.831,1.276,4.032,2.637,7.006,2.637h0.002c2.975,0,5.177-1.361,7.008-2.637c0.345-0.24,0.743-0.604,1.165-0.989  C41.336,51.319,42.783,50,44.539,50c1.074,0,2.638,0.384,3.78,0.665c0.346,0.085,0.633,0.156,0.815,0.191  c0.318,0.061,0.618,0.119,0.825,0.138c0.097-0.349,0.17-0.679,0.24-0.999c0.254-1.145,0.515-2.326,1.652-2.497  c3.469-0.529,4.991-0.979,5.658-1.274c-7.98-1.792-11.923-9.727-11.959-9.809c-0.605-1.212-0.708-2.324-0.293-3.287  c0.723-1.683,3.102-2.812,4.258-3.173c0.286-0.09,0.516-0.161,0.698-0.232c1.459-0.569,1.78-1.075,1.787-1.179  C51.965,28.369,51.417,28,50.864,28c-0.127,0-0.191,0.023-0.213,0.033l-0.385,0.181C49.371,28.635,48.597,29,47.672,29  c-1.343,0-2.232-0.951-2.545-1.513C45.043,27.338,45,27.17,45,27l0.006-2.848c0.02-3.281,0.04-6.674-0.895-8.74  c-2.768-6.122-8.112-7.407-12.108-7.407c-4,0-9.345,1.285-12.112,7.407c-0.934,2.066-0.914,5.458-0.895,8.74L19.001,27  c0,0.17-0.043,0.338-0.127,0.487C18.561,28.049,17.672,29,16.329,29c-0.924,0-1.698-0.365-2.595-0.787l-0.386-0.181  C13.332,28.025,13.268,28,13.137,28c-0.553,0-1.101,0.37-1.136,0.551c0.007,0.097,0.328,0.603,1.788,1.172  c0.178,0.069,0.404,0.139,0.642,0.214c1.212,0.379,3.591,1.507,4.315,3.191c0.411,0.956,0.313,2.06-0.291,3.28  c-0.003,0.008-0.007,0.015-0.01,0.021c-0.028,0.067-3.965,8.01-11.964,9.797c0.658,0.286,2.177,0.739,5.672,1.271  c1.134,0.17,1.396,1.352,1.649,2.494c0.071,0.324,0.145,0.657,0.239,0.998c0.233-0.02,0.52-0.075,0.819-0.132  c0.189-0.037,0.476-0.108,0.822-0.193C16.824,50.384,18.388,50,19.462,50z M11.851,49.476c0.001,0,0.001,0,0.002,0  C11.852,49.476,11.852,49.476,11.851,49.476z M52.153,49.475c0,0-0.001,0-0.002,0C52.151,49.475,52.152,49.475,52.153,49.475z   M58.363,46.389c0,0,0.001,0,0.002,0C58.364,46.389,58.364,46.389,58.363,46.389z M5.642,46.389c-0.001,0-0.001,0-0.002,0  C5.64,46.389,5.641,46.389,5.642,46.389z"/>
<linearGradient id="SVGID_2__56545" gradientUnits="userSpaceOnUse" x1="27.4999" y1="12" x2="27.4999" y2="26" spreadMethod="reflect">
	<stop offset="0" style="stop-color:#a98d27 "/>
	<stop offset="1" style="stop-color:#090702"/>
</linearGradient>
<path style="fill:url(#SVGID_2__56545);" d="M25.006,26h-2v-1.553c-0.021-3.107,0.005-5.705,0.527-6.859  C25.987,12.157,31.388,12,31.998,12c0,0,0,0,0,0l0,2l0,0c-0.477,0-4.705,0.124-6.643,4.412c-0.384,0.848-0.361,4.287-0.35,5.939  L25.006,26z"/>
</svg>
